<?xml version="1.0" encoding="utf-8"?>
<!-- Generator: Adobe Illustrator 24.1.0, SVG Export Plug-In . SVG Version: 6.00 Build 0)  -->
<svg version="1.1" id="Layer_1" xmlns="http://www.w3.org/2000/svg" xmlns:xlink="http://www.w3.org/1999/xlink" x="0px" y="0px"
	 viewBox="0 0 64 64" style="enable-background:new 0 0 64 64;" xml:space="preserve">
<style type="text/css">
	.st0{fill:#1E40AF;}
</style>
<path class="st0" d="M63.6,36.3L50.5,23.2c0,0,0,0,0,0c0,0,0,0,0,0l-18-18c-0.3-0.3-0.7-0.3-1,0L0.4,36.3c-0.3,0.3-0.3,0.7,0,1
	L12.1,49c0.3,0.3,0.7,0.3,1,0l3.6-3.6l11.2,11.4c0.1,0.1,0.3,0.2,0.5,0.2c0.2,0,0.4-0.1,0.5-0.2l16.1-15c0.2,0.1,0.5,0.1,0.8,0.1
	c1.3,0,2.3-1,2.3-2.3s-1-2.3-2.3-2.3c-1.3,0-2.3,1-2.3,2.3c0,0.5,0.2,0.9,0.4,1.3L28.5,55.3L17.7,44.3l7-7c0,0,0,0,0,0c0,0,0,0,0,0
	l8.3-8.3c0.4,0.2,0.8,0.4,1.3,0.4c1.3,0,2.3-1,2.3-2.3s-1-2.3-2.3-2.3c-1.3,0-2.3,1-2.3,2.3c0,0.3,0.1,0.6,0.2,0.8l-7.9,7.9L19,30.7
	l5.2-5.2c0.4,0.3,0.8,0.4,1.3,0.4c1.3,0,2.3-1,2.3-2.3c0-1.3-1-2.3-2.3-2.3c-1.3,0-2.3,1-2.3,2.3c0,0.3,0,0.5,0.1,0.7l-5.9,5.9
	c-0.1,0.1-0.2,0.3-0.2,0.5c0,0.2,0.1,0.4,0.2,0.5l5.8,5.6L12.6,47.4L1.9,36.8L32,6.7l17,17L32.3,40.4c-0.3-0.2-0.7-0.3-1.1-0.3
	c-1.3,0-2.3,1-2.3,2.3c0,1.3,1,2.3,2.3,2.3c1.3,0,2.3-1,2.3-2.3c0-0.4-0.1-0.7-0.3-1.1L50,24.7l12.1,12.1l-14,13.8
	c-0.3-0.2-0.7-0.3-1.1-0.3c-1.3,0-2.3,1-2.3,2.3c0,1.3,1,2.3,2.3,2.3s2.3-1,2.3-2.3c0-0.4-0.1-0.7-0.2-1l14.5-14.4
	C63.9,37,63.9,36.6,63.6,36.3z"/>
</svg>
