<?xml version="1.0" encoding="utf-8"?>
<!-- Generator: Adobe Illustrator 24.1.0, SVG Export Plug-In . SVG Version: 6.00 Build 0)  -->
<svg version="1.1" id="Layer_1" xmlns="http://www.w3.org/2000/svg" xmlns:xlink="http://www.w3.org/1999/xlink" x="0px" y="0px"
	 viewBox="0 0 1395 361" style="enable-background:new 0 0 1395 361;" xml:space="preserve">
<style type="text/css">
	.st0{fill:#1E40AF;}
	.st1{fill:#FFFFFF;}
</style>
<g>
	<path class="st0" d="M433.6,210.5l-86.1-86.1c0,0,0,0,0,0s0,0,0,0L228.8,5.7c-1.8-1.9-4.8-1.9-6.7,0L17.3,210.5
		c-1.9,1.8-1.9,4.8,0,6.7l76.9,76.9c1.8,1.8,4.9,1.8,6.7,0l23.9-23.9l73.7,75.3c0.9,0.9,2.2,1.4,3.4,1.4c1.2,0,2.3-0.4,3.2-1.3
		L311,246.9c1.6,0.5,3.2,0.8,5,0.8c8.5,0,15.3-6.9,15.3-15.3s-6.9-15.3-15.3-15.3s-15.3,6.9-15.3,15.3c0,3.2,1,6.2,2.7,8.7
		l-101.3,94.5l-70.5-72.1l46.4-46.4c0,0,0,0,0,0c0,0,0,0,0,0l54.5-54.5c2.4,1.6,5.3,2.5,8.4,2.5c8.5,0,15.3-6.9,15.3-15.3
		s-6.9-15.3-15.3-15.3c-8.5,0-15.3,6.9-15.3,15.3c0,1.9,0.4,3.7,1,5.4l-52,52l-34.8-33.6l34.2-34.2c2.5,1.8,5.5,2.8,8.8,2.8
		c8.5,0,15.3-6.9,15.3-15.3s-6.9-15.3-15.3-15.3c-8.5,0-15.3,6.9-15.3,15.3c0,1.7,0.3,3.4,0.8,4.9l-38.6,38.6
		c-0.9,0.9-1.4,2.1-1.4,3.4c0,1.3,0.5,2.5,1.4,3.4l38.1,36.8l-70.2,70.2l-70.2-70.2L225.5,15.8l111.9,111.9l-110,110
		c-2.1-1.1-4.5-1.7-7-1.7c-8.5,0-15.3,6.9-15.3,15.3c0,8.5,6.9,15.3,15.3,15.3c8.5,0,15.3-6.9,15.3-15.3c0-2.5-0.6-4.9-1.7-7
		l110-110l79.4,79.4L331.2,305c-2.1-1.1-4.5-1.7-7.1-1.7c-8.5,0-15.3,6.9-15.3,15.3s6.9,15.3,15.3,15.3c8.5,0,15.3-6.9,15.3-15.3
		c0-2.5-0.6-4.8-1.6-6.9l95.7-94.5C435.4,215.4,435.4,212.4,433.6,210.5z"/>
	<g>
		<path class="st0" d="M483.2,115.8c4,0,7.4,0.7,10.3,2c2.8,1.3,5,3.3,6.6,5.8c1.5,2.5,2.3,5.6,2.3,9.2c0,2.2-0.3,4.3-1,6.4
			c-0.7,2.1-1.7,4-3.2,5.7c-1.4,1.7-3.3,3.1-5.7,4.1c-2.3,1-5.2,1.5-8.5,1.5H476v20.2h-7.4v-54.9H483.2z M484,143.4
			c2.2,0,4-0.4,5.4-1.1c1.4-0.7,2.5-1.6,3.3-2.7c0.8-1.1,1.4-2.2,1.7-3.5c0.4-1.2,0.5-2.3,0.5-3.3c0-1.1-0.2-2.3-0.5-3.5
			c-0.4-1.2-1-2.3-1.8-3.3c-0.8-1-1.9-1.8-3.3-2.4c-1.3-0.6-3-0.9-5-0.9H476v20.6H484z"/>
		<path class="st0" d="M513.8,115.8h35.7v7.1h-28.3v16.7h25.3v7.1h-25.3v17h29.4v7.1h-36.8V115.8z"/>
		<path class="st0" d="M559.3,115.8h36.5v7.1h-14.7v47.9h-7.4v-47.9h-14.4V115.8z"/>
		<path class="st0" d="M622.1,115.8c2.8,0,5.4,0.4,7.7,1.1c2.4,0.7,4.4,1.8,6.2,3.3c1.7,1.4,3.1,3.2,4.1,5.3c1,2.1,1.5,4.5,1.5,7.3
			c0,2.2-0.3,4.3-1,6.4c-0.6,2.1-1.7,4-3.2,5.7c-1.5,1.7-3.4,3.1-5.7,4.1c-2.4,1-5.3,1.6-8.7,1.6h-8.1v20.2h-7.4v-54.9H622.1z
			 M622.9,143.4c2.2,0,4-0.3,5.4-1c1.4-0.7,2.6-1.5,3.4-2.5c0.8-1,1.4-2.2,1.7-3.4c0.4-1.2,0.5-2.4,0.5-3.4c0-1.1-0.2-2.3-0.6-3.5
			c-0.4-1.2-1-2.3-1.8-3.3c-0.8-1-1.9-1.8-3.3-2.5c-1.3-0.7-3-1-4.9-1h-8.5v20.6H622.9z M631.9,147.6l14.4,23.1h-8.5l-14.6-22.9
			L631.9,147.6z"/>
		<path class="st0" d="M657.6,115.8h7.4v54.9h-7.4V115.8z"/>
		<path class="st0" d="M752.4,172.5l-42.5-43.1l2.1,0.5l0.2,40.8h-7.4v-56.6h0.4l42,43.2l-1.7-0.4l-0.2-41.2h7.3v56.7H752.4z"/>
		<path class="st0" d="M768.4,115.8h35.7v7.1h-28.3v16.7h25.3v7.1h-25.3v17h29.4v7.1h-36.8V115.8z"/>
		<path class="st0" d="M813.9,115.8h36.5v7.1h-14.7v47.9h-7.4v-47.9h-14.4V115.8z"/>
		<path class="st0" d="M882.1,115.8h36.5v7.1h-14.7v47.9h-7.4v-47.9h-14.4V115.8z"/>
		<path class="st0" d="M924.5,143.3c0-3.8,0.7-7.4,2.2-10.8c1.4-3.4,3.5-6.4,6-9c2.6-2.6,5.6-4.7,8.9-6.2c3.4-1.5,7-2.2,10.9-2.2
			c3.8,0,7.5,0.7,10.8,2.2c3.4,1.5,6.4,3.5,9,6.2c2.6,2.6,4.6,5.6,6.1,9c1.5,3.4,2.2,7,2.2,10.8c0,3.9-0.7,7.6-2.2,10.9
			c-1.5,3.4-3.5,6.4-6.1,8.9c-2.6,2.6-5.6,4.6-9,6c-3.4,1.4-7,2.2-10.8,2.2c-3.9,0-7.5-0.7-10.9-2.1c-3.4-1.4-6.3-3.4-8.9-5.9
			c-2.6-2.5-4.6-5.5-6-8.9C925.2,151,924.5,147.3,924.5,143.3z M932.1,143.4c0,2.9,0.5,5.6,1.6,8.1c1.1,2.5,2.5,4.7,4.4,6.6
			c1.9,1.9,4.1,3.4,6.5,4.5c2.5,1.1,5.2,1.6,8.1,1.6c2.8,0,5.5-0.5,8-1.6c2.5-1.1,4.6-2.6,6.5-4.5c1.8-1.9,3.3-4.1,4.3-6.6
			c1.1-2.5,1.6-5.2,1.6-8.2c0-2.9-0.5-5.6-1.6-8.2c-1.1-2.6-2.5-4.8-4.4-6.7c-1.9-1.9-4.1-3.4-6.5-4.5c-2.5-1.1-5.1-1.6-8-1.6
			c-2.9,0-5.6,0.6-8.1,1.7c-2.5,1.1-4.7,2.6-6.5,4.6c-1.9,1.9-3.3,4.2-4.3,6.7C932.6,137.7,932.1,140.5,932.1,143.4z"/>
		<path class="st0" d="M989.6,143.3c0-3.8,0.7-7.4,2.2-10.8c1.4-3.4,3.5-6.4,6-9c2.6-2.6,5.6-4.7,8.9-6.2c3.4-1.5,7-2.2,10.9-2.2
			c3.8,0,7.5,0.7,10.8,2.2c3.4,1.5,6.4,3.5,9,6.2c2.6,2.6,4.6,5.6,6.1,9c1.5,3.4,2.2,7,2.2,10.8c0,3.9-0.7,7.6-2.2,10.9
			c-1.5,3.4-3.5,6.4-6.1,8.9c-2.6,2.6-5.6,4.6-9,6c-3.4,1.4-7,2.2-10.8,2.2c-3.9,0-7.5-0.7-10.9-2.1c-3.4-1.4-6.3-3.4-8.9-5.9
			c-2.6-2.5-4.6-5.5-6-8.9C990.4,151,989.6,147.3,989.6,143.3z M997.2,143.4c0,2.9,0.5,5.6,1.6,8.1c1.1,2.5,2.5,4.7,4.4,6.6
			c1.9,1.9,4.1,3.4,6.5,4.5c2.5,1.1,5.2,1.6,8.1,1.6c2.8,0,5.5-0.5,8-1.6c2.5-1.1,4.6-2.6,6.5-4.5c1.8-1.9,3.3-4.1,4.3-6.6
			c1.1-2.5,1.6-5.2,1.6-8.2c0-2.9-0.5-5.6-1.6-8.2c-1.1-2.6-2.5-4.8-4.4-6.7c-1.9-1.9-4.1-3.4-6.5-4.5c-2.5-1.1-5.1-1.6-8-1.6
			c-2.9,0-5.6,0.6-8.1,1.7c-2.5,1.1-4.7,2.6-6.5,4.6c-1.9,1.9-3.3,4.2-4.3,6.7C997.7,137.7,997.2,140.5,997.2,143.4z"/>
		<path class="st0" d="M1058.2,115.8h7.4v47.9h27.9v7.1h-35.3V115.8z"/>
		<path class="st0" d="M498.8,215c-1.6-0.9-3.5-1.7-5.9-2.5c-2.4-0.8-4.7-1.3-7.1-1.3c-2.3,0-4.3,0.3-5.8,1
			c-1.5,0.7-2.8,1.5-3.7,2.5c-0.9,1-1.6,2.1-1.9,3.2c-0.4,1.1-0.6,2-0.6,2.9c-0.1,1.8,0.5,3.3,1.6,4.6c1.1,1.3,2.5,2.5,4.3,3.5
			c1.8,1,3.7,2,5.7,2.9c2.2,1,4.3,2.1,6.3,3.3c2,1.2,3.6,2.8,4.9,4.6c1.3,1.9,1.8,4.3,1.7,7.2c-0.1,1.7-0.4,3.4-1.1,5.3
			c-0.7,1.8-1.8,3.6-3.2,5.1c-1.4,1.6-3.2,2.8-5.5,3.8s-4.9,1.5-8.1,1.4c-2.6-0.1-5-0.4-7.2-1.1c-2.2-0.7-4.1-1.5-5.8-2.5
			s-3.1-2-4.3-3.1l2.1-2.9c1.1,1,2.4,2,4,2.9c1.6,0.9,3.4,1.7,5.3,2.3c2,0.6,4,0.9,6,1c3,0,5.5-0.6,7.5-1.8c2-1.2,3.6-2.8,4.6-4.7
			c1.1-1.9,1.6-3.8,1.7-5.8c0.1-2.2-0.5-4-1.6-5.5c-1.1-1.5-2.6-2.8-4.3-3.8c-1.8-1.1-3.6-2-5.6-2.9c-1.6-0.7-3.1-1.5-4.7-2.3
			c-1.6-0.8-3-1.8-4.3-2.8c-1.3-1-2.3-2.3-3-3.6c-0.7-1.4-1-3-0.9-4.9c0.1-2.7,0.9-5,2.3-7c1.4-2,3.3-3.4,5.7-4.5
			c2.4-1,5-1.6,7.8-1.6c1.8,0.1,3.6,0.3,5.4,0.7c1.8,0.4,3.5,0.9,5.1,1.6c1.6,0.6,3.1,1.4,4.4,2.2L498.8,215z"/>
		<path class="st0" d="M515.3,208h3.8l-6.6,54h-3.8L515.3,208z"/>
		<path class="st0" d="M533.5,261.9h-3.6l6.8-55.2h0.1l22,37.8l-1.7-0.2l31.3-37.5h0.1l-6.8,55.2h-3.6l5.7-46.6l0.1,1.8l-26.4,31.7
			h-0.2l-18.8-31.7l0.8-1.7L533.5,261.9z"/>
		<path class="st0" d="M605,243.7c-0.4,3.1-0.1,5.9,0.9,8.1c1,2.3,2.5,4,4.6,5.3c2.1,1.2,4.5,1.9,7.4,1.9c3.1,0,5.8-0.6,8.2-1.9
			c2.4-1.2,4.3-3,5.7-5.3c1.5-2.3,2.4-5,2.7-8.1l4.3-35.7h3.8l-4.3,35.9c-0.5,3.9-1.7,7.2-3.5,10c-1.8,2.8-4.2,4.9-7.2,6.4
			c-3,1.5-6.4,2.2-10.2,2.2c-3.5,0-6.5-0.7-9.2-2.2c-2.6-1.5-4.6-3.6-5.9-6.4c-1.3-2.8-1.7-6.1-1.3-10l4.4-35.9h3.8L605,243.7z"/>
		<path class="st0" d="M660,208h3.6l-6.2,50.4h29.6l-0.5,3.6h-33.3L660,208z"/>
		<path class="st0" d="M696.3,261.9h-3.7l29.7-56.3h0.3l15.9,56.3h-4.2L720.4,212l2.8-1.4L696.3,261.9z M706.2,240.6h23.9l0.6,3.5
			h-25.9L706.2,240.6z"/>
		<path class="st0" d="M749.2,208h35.3l-0.5,3.6h-15.8l-6.2,50.3h-3.8l6.2-50.3h-15.7L749.2,208z"/>
		<path class="st0" d="M797.4,208h3.8l-6.6,54h-3.8L797.4,208z"/>
		<path class="st0" d="M837.8,262.4c-3.5,0-6.8-0.6-10-1.8c-3.1-1.2-5.9-2.9-8.3-5.1c-2.4-2.2-4.3-4.9-5.6-8
			c-1.4-3.1-2.1-6.6-2.1-10.5c0-3.3,0.6-6.8,1.9-10.2c1.3-3.5,3.1-6.7,5.6-9.6c2.5-2.9,5.5-5.3,9.2-7.1c3.7-1.8,7.9-2.7,12.7-2.7
			c3.5,0,6.8,0.6,10,1.8c3.1,1.2,5.9,2.9,8.3,5.1c2.4,2.2,4.3,4.9,5.6,8.1s2.1,6.7,2.1,10.6c0,3.3-0.6,6.7-1.9,10.2
			c-1.3,3.4-3.1,6.6-5.6,9.5c-2.5,2.9-5.5,5.3-9.2,7.1C846.8,261.5,842.6,262.4,837.8,262.4z M837.9,258.9c4.2,0,7.8-0.8,11-2.4
			c3.2-1.6,5.8-3.6,8-6.2c2.2-2.5,3.8-5.3,4.9-8.4c1.1-3,1.6-6,1.6-8.9c0-3-0.6-5.8-1.7-8.5c-1.1-2.7-2.7-5-4.7-7.1
			c-2-2.1-4.4-3.7-7.1-4.8c-2.7-1.2-5.7-1.7-8.9-1.7c-4.2,0-7.8,0.8-10.9,2.4c-3.1,1.6-5.8,3.6-7.9,6.2c-2.2,2.6-3.8,5.3-4.9,8.4
			c-1.1,3-1.6,6-1.6,8.9c0,3,0.5,5.8,1.6,8.5c1.1,2.7,2.6,5,4.6,7c2,2,4.4,3.6,7.1,4.8C831.7,258.3,834.7,258.9,837.9,258.9z"/>
		<path class="st0" d="M922.8,263.2h-0.2l-36.6-48.3l0.9-0.5l-5.8,47.4h-3.6l6.8-55.1h0.2l36.6,48.6l-1,0.1L926,208h3.6L922.8,263.2
			z"/>
		<path class="st0" d="M979.9,234.6c-1.7-0.1-3.4,0.1-5.2,0.7s-3.4,1.4-4.9,2.5c-1.5,1.1-2.7,2.5-3.7,4.1c-1,1.6-1.4,3.5-1.4,5.5
			c-0.1,2.2,0.5,4.2,1.7,6c1.2,1.8,2.8,3.2,4.9,4.1c2.1,1,4.3,1.5,6.8,1.6c2,0,3.9-0.3,5.7-0.9c1.8-0.6,3.4-1.4,4.8-2.5
			c1.4-1,2.4-2.2,3.2-3.5l2.1,2.5c-1.5,2.3-3.8,4.1-6.7,5.5c-2.9,1.4-6.2,2.1-9.9,2.1c-3.3-0.1-6.3-0.8-8.9-2.1
			c-2.6-1.4-4.5-3.2-5.9-5.5s-2-4.8-1.9-7.5c0.1-2.4,0.7-4.6,1.9-6.5c1.1-2,2.6-3.7,4.5-5.1c1.9-1.4,3.9-2.5,6.2-3.3
			c2.3-0.8,4.5-1.1,6.9-1L979.9,234.6z M1000.7,261.9c-0.2,0-0.5,0-1,0c-0.5,0-1,0-1.5,0s-1.2,0-1.9,0l-23.1-37.2
			c-0.5-0.7-0.9-1.5-1.3-2.3s-0.7-1.7-0.9-2.6c-0.2-0.9-0.3-1.8-0.2-2.7c0-2.4,0.6-4.5,1.8-6.3c1.1-1.8,2.7-3.3,4.8-4.4
			c2.1-1.1,4.6-1.6,7.4-1.6c2.4,0,4.5,0.4,6.4,1.3c1.9,0.9,3.5,1.9,4.7,3l-2.1,2.5c-1.4-1.1-2.8-2-4.3-2.7c-1.4-0.7-3-1-4.5-1
			c-3.4,0-6,0.9-7.7,2.8c-1.7,1.8-2.6,4-2.7,6.6c0,0.6,0.1,1.3,0.3,2c0.2,0.7,0.5,1.4,0.8,2c0.3,0.6,0.6,1.2,0.8,1.6L1000.7,261.9z
			 M1002.2,231.4h3.6l-11.5,22.7l-2.4-2.1L1002.2,231.4z"/>
		<path class="st0" d="M1038.4,261.9h-3.7l29.7-56.3h0.3l15.9,56.3h-4.2l-13.8-49.9l2.8-1.4L1038.4,261.9z M1048.4,240.6h23.9
			l0.6,3.5H1047L1048.4,240.6z"/>
		<path class="st0" d="M1138.3,263.2h-0.2l-36.6-48.3l0.9-0.5l-5.8,47.4h-3.6l6.8-55.1h0.2l36.6,48.6l-1,0.1l5.8-47.5h3.6
			L1138.3,263.2z"/>
		<path class="st0" d="M1154.7,261.9h-3.7l29.7-56.3h0.3l15.9,56.3h-4.2l-13.8-49.9l2.8-1.4L1154.7,261.9z M1164.7,240.6h23.9
			l0.6,3.5h-25.9L1164.7,240.6z"/>
		<path class="st0" d="M1216,208h3.6l-6.2,50.4h29.6l-0.5,3.6h-33.3L1216,208z"/>
		<path class="st0" d="M1259.7,242.7l-15.8-34.7h4.4l14.4,31.6l-1.3,0.1l22-31.7h4.6l-24.5,34.7l-2.4,19.2h-3.8L1259.7,242.7z"/>
		<path class="st0" d="M1323,215c-1.6-0.9-3.5-1.7-5.9-2.5c-2.4-0.8-4.7-1.3-7.1-1.3c-2.3,0-4.3,0.3-5.8,1c-1.5,0.7-2.8,1.5-3.7,2.5
			c-0.9,1-1.6,2.1-1.9,3.2c-0.4,1.1-0.6,2-0.6,2.9c-0.1,1.8,0.5,3.3,1.6,4.6c1.1,1.3,2.5,2.5,4.3,3.5c1.8,1,3.7,2,5.7,2.9
			c2.2,1,4.3,2.1,6.3,3.3c2,1.2,3.6,2.8,4.9,4.6c1.3,1.9,1.8,4.3,1.7,7.2c-0.1,1.7-0.4,3.4-1.1,5.3c-0.7,1.8-1.8,3.6-3.2,5.1
			c-1.4,1.6-3.2,2.8-5.5,3.8c-2.2,1-4.9,1.5-8.1,1.4c-2.6-0.1-5-0.4-7.2-1.1c-2.2-0.7-4.1-1.5-5.8-2.5s-3.1-2-4.3-3.1l2.1-2.9
			c1.1,1,2.4,2,4,2.9c1.6,0.9,3.4,1.7,5.3,2.3c2,0.6,4,0.9,6,1c3,0,5.5-0.6,7.5-1.8c2-1.2,3.6-2.8,4.6-4.7c1.1-1.9,1.6-3.8,1.7-5.8
			c0-2.2-0.5-4-1.6-5.5c-1.1-1.5-2.6-2.8-4.3-3.8c-1.8-1.1-3.6-2-5.6-2.9c-1.6-0.7-3.1-1.5-4.7-2.3c-1.6-0.8-3-1.8-4.3-2.8
			c-1.3-1-2.3-2.3-3-3.6c-0.7-1.4-1-3-0.9-4.9c0.1-2.7,0.9-5,2.3-7c1.4-2,3.3-3.4,5.7-4.5c2.4-1,5-1.6,7.8-1.6
			c1.8,0.1,3.6,0.3,5.4,0.7c1.8,0.4,3.5,0.9,5.1,1.6c1.6,0.6,3.1,1.4,4.4,2.2L1323,215z"/>
		<path class="st0" d="M1339.5,208h3.8l-6.6,54h-3.8L1339.5,208z"/>
		<path class="st0" d="M1385.4,215c-1.6-0.9-3.5-1.7-5.9-2.5c-2.4-0.8-4.7-1.3-7.1-1.3c-2.3,0-4.3,0.3-5.8,1
			c-1.5,0.7-2.8,1.5-3.7,2.5c-0.9,1-1.6,2.1-1.9,3.2c-0.4,1.1-0.6,2-0.6,2.9c-0.1,1.8,0.5,3.3,1.6,4.6c1.1,1.3,2.5,2.5,4.3,3.5
			c1.8,1,3.7,2,5.7,2.9c2.2,1,4.3,2.1,6.3,3.3c2,1.2,3.6,2.8,4.9,4.6c1.3,1.9,1.8,4.3,1.7,7.2c-0.1,1.7-0.4,3.4-1.1,5.3
			c-0.7,1.8-1.8,3.6-3.2,5.1c-1.4,1.6-3.2,2.8-5.5,3.8c-2.2,1-4.9,1.5-8.1,1.4c-2.6-0.1-5-0.4-7.2-1.1c-2.2-0.7-4.1-1.5-5.8-2.5
			s-3.1-2-4.3-3.1l2.1-2.9c1.1,1,2.4,2,4,2.9c1.6,0.9,3.4,1.7,5.3,2.3c2,0.6,4,0.9,6,1c3,0,5.5-0.6,7.5-1.8c2-1.2,3.6-2.8,4.6-4.7
			c1.1-1.9,1.6-3.8,1.7-5.8c0-2.2-0.5-4-1.6-5.5c-1.1-1.5-2.6-2.8-4.3-3.8c-1.8-1.1-3.6-2-5.6-2.9c-1.6-0.7-3.1-1.5-4.7-2.3
			c-1.6-0.8-3-1.8-4.3-2.8c-1.3-1-2.3-2.3-3-3.6c-0.7-1.4-1-3-0.9-4.9c0.1-2.7,0.9-5,2.3-7c1.4-2,3.3-3.4,5.7-4.5
			c2.4-1,5-1.6,7.8-1.6c1.8,0.1,3.6,0.3,5.4,0.7c1.8,0.4,3.5,0.9,5.1,1.6c1.6,0.6,3.1,1.4,4.4,2.2L1385.4,215z"/>
	</g>
</g>
</svg>
