<?xml version="1.0" encoding="utf-8"?>
<!-- Generator: Adobe Illustrator 24.1.0, SVG Export Plug-In . SVG Version: 6.00 Build 0)  -->
<svg version="1.1" id="Layer_1" xmlns="http://www.w3.org/2000/svg" xmlns:xlink="http://www.w3.org/1999/xlink" x="0px" y="0px"
	 viewBox="0 0 627 505" style="enable-background:new 0 0 627 505;" xml:space="preserve">
<style type="text/css">
	.st0{fill:#1E40AF;}
	.st1{fill:#FFFFFF;}
</style>
<g>
	<path class="st0" d="M523.5,226.9l-90.5-90.5c0,0,0,0,0,0s0,0,0,0L308.5,11.8c-1.9-1.9-5.1-1.9-7,0l-215,215c-1.9,1.9-1.9,5.1,0,7
		l80.8,80.8c1.9,1.9,5.2,1.9,7,0l25.1-25.1l77.4,79.1c1,1,2.3,1.5,3.6,1.5c1.2,0,2.4-0.4,3.4-1.3l111.2-103.7
		c1.6,0.6,3.4,0.9,5.2,0.9c8.9,0,16.1-7.2,16.1-16.1s-7.2-16.1-16.1-16.1S384,241,384,249.9c0,3.4,1.1,6.5,2.9,9.1l-106.4,99.3
		l-74.1-75.7l48.7-48.7c0,0,0,0,0,0c0,0,0,0,0,0l57.2-57.2c2.5,1.7,5.5,2.6,8.8,2.6c8.9,0,16.1-7.2,16.1-16.1S330,147,321.1,147
		s-16.1,7.2-16.1,16.1c0,2,0.4,3.9,1.1,5.7l-54.6,54.6l-36.5-35.3l35.9-35.9c2.6,1.8,5.8,2.9,9.2,2.9c8.9,0,16.1-7.2,16.1-16.1
		s-7.2-16.1-16.1-16.1S244,130.1,244,139c0,1.8,0.3,3.5,0.9,5.1l-40.5,40.5c-0.9,0.9-1.5,2.2-1.5,3.6c0,1.3,0.6,2.6,1.5,3.5l40,38.7
		l-73.7,73.7L97,230.4l208-208l117.6,117.6L307,255.4c-2.2-1.1-4.7-1.8-7.3-1.8c-8.9,0-16.1,7.2-16.1,16.1s7.2,16.1,16.1,16.1
		s16.1-7.2,16.1-16.1c0-2.6-0.6-5.1-1.8-7.3L429.6,147l83.4,83.4l-96.9,95.7c-2.2-1.2-4.7-1.8-7.4-1.8c-8.9,0-16.1,7.2-16.1,16.1
		s7.2,16.1,16.1,16.1s16.1-7.2,16.1-16.1c0-2.6-0.6-5.1-1.7-7.2l100.5-99.3C525.5,232,525.5,228.8,523.5,226.9z"/>
	<g>
		<path class="st0" d="M126.8,399c2.5,0,4.7,0.4,6.5,1.3c1.8,0.8,3.2,2.1,4.2,3.7c1,1.6,1.5,3.5,1.5,5.8c0,1.4-0.2,2.7-0.6,4.1
			c-0.4,1.3-1.1,2.5-2,3.6c-0.9,1.1-2.1,1.9-3.6,2.6c-1.5,0.6-3.3,1-5.4,1h-5.1v12.8h-4.7V399H126.8z M127.3,416.5
			c1.4,0,2.5-0.2,3.4-0.7c0.9-0.4,1.6-1,2.1-1.7c0.5-0.7,0.9-1.4,1.1-2.2c0.2-0.8,0.3-1.5,0.3-2.1c0-0.7-0.1-1.4-0.3-2.2
			c-0.2-0.8-0.6-1.4-1.1-2.1s-1.2-1.1-2.1-1.5c-0.8-0.4-1.9-0.6-3.1-0.6h-5.4v13H127.3z"/>
		<path class="st0" d="M146.1,399h22.6v4.5h-17.9V414h16v4.5h-16v10.8h18.6v4.5h-23.2V399z"/>
		<path class="st0" d="M174.9,399h23v4.5h-9.3v30.2h-4.7v-30.2h-9.1V399z"/>
		<path class="st0" d="M214.5,399c1.8,0,3.4,0.2,4.9,0.7c1.5,0.5,2.8,1.2,3.9,2.1c1.1,0.9,2,2,2.6,3.4c0.6,1.3,0.9,2.9,0.9,4.6
			c0,1.4-0.2,2.7-0.6,4c-0.4,1.3-1.1,2.5-2,3.6c-0.9,1.1-2.1,1.9-3.6,2.6c-1.5,0.7-3.3,1-5.5,1h-5.1v12.8h-4.7V399H214.5z
			 M215,416.5c1.4,0,2.5-0.2,3.4-0.6c0.9-0.4,1.6-1,2.1-1.6c0.5-0.7,0.9-1.4,1.1-2.1c0.2-0.8,0.3-1.5,0.3-2.2c0-0.7-0.1-1.4-0.4-2.2
			c-0.2-0.8-0.6-1.4-1.2-2.1c-0.5-0.6-1.2-1.2-2.1-1.6c-0.8-0.4-1.9-0.6-3.1-0.6h-5.4v13H215z M220.7,419.1l9.1,14.6h-5.4l-9.2-14.4
			L220.7,419.1z"/>
		<path class="st0" d="M236.9,399h4.7v34.7h-4.7V399z"/>
		<path class="st0" d="M296.8,434.8l-26.8-27.2l1.3,0.3l0.1,25.8h-4.7V398h0.2l26.5,27.3l-1.1-0.2l-0.1-26h4.6v35.8H296.8z"/>
		<path class="st0" d="M306.9,399h22.6v4.5h-17.9V414h16v4.5h-16v10.8h18.6v4.5h-23.2V399z"/>
		<path class="st0" d="M335.7,399h23v4.5h-9.3v30.2h-4.7v-30.2h-9.1V399z"/>
		<path class="st0" d="M378.7,399h23v4.5h-9.3v30.2h-4.7v-30.2h-9.1V399z"/>
		<path class="st0" d="M405.5,416.4c0-2.4,0.5-4.7,1.4-6.8c0.9-2.1,2.2-4,3.8-5.7c1.6-1.6,3.5-2.9,5.6-3.9c2.1-0.9,4.4-1.4,6.9-1.4
			c2.4,0,4.7,0.5,6.8,1.4c2.1,0.9,4,2.2,5.7,3.9c1.6,1.6,2.9,3.5,3.9,5.7c0.9,2.1,1.4,4.4,1.4,6.8c0,2.5-0.5,4.8-1.4,6.9
			c-0.9,2.1-2.2,4-3.9,5.6c-1.6,1.6-3.5,2.9-5.7,3.8c-2.1,0.9-4.4,1.4-6.8,1.4c-2.5,0-4.8-0.4-6.9-1.3c-2.1-0.9-4-2.1-5.6-3.7
			c-1.6-1.6-2.9-3.5-3.8-5.6C406,421.3,405.5,418.9,405.5,416.4z M410.3,416.4c0,1.8,0.3,3.5,1,5.1s1.6,3,2.8,4.2
			c1.2,1.2,2.6,2.2,4.1,2.9c1.6,0.7,3.3,1,5.1,1c1.8,0,3.5-0.3,5-1c1.6-0.7,2.9-1.6,4.1-2.9c1.2-1.2,2.1-2.6,2.7-4.2s1-3.3,1-5.2
			c0-1.8-0.3-3.5-1-5.2c-0.7-1.6-1.6-3-2.8-4.2c-1.2-1.2-2.6-2.2-4.1-2.9c-1.6-0.7-3.2-1-5-1c-1.8,0-3.5,0.4-5.1,1.1
			c-1.6,0.7-2.9,1.7-4.1,2.9c-1.2,1.2-2.1,2.6-2.7,4.2C410.6,412.9,410.3,414.6,410.3,416.4z"/>
		<path class="st0" d="M446.6,416.4c0-2.4,0.5-4.7,1.4-6.8c0.9-2.1,2.2-4,3.8-5.7c1.6-1.6,3.5-2.9,5.6-3.9c2.1-0.9,4.4-1.4,6.9-1.4
			c2.4,0,4.7,0.5,6.8,1.4c2.1,0.9,4,2.2,5.7,3.9c1.6,1.6,2.9,3.5,3.9,5.7c0.9,2.1,1.4,4.4,1.4,6.8c0,2.5-0.5,4.8-1.4,6.9
			c-0.9,2.1-2.2,4-3.9,5.6c-1.6,1.6-3.5,2.9-5.7,3.8c-2.1,0.9-4.4,1.4-6.8,1.4c-2.5,0-4.8-0.4-6.9-1.3c-2.1-0.9-4-2.1-5.6-3.7
			c-1.6-1.6-2.9-3.5-3.8-5.6C447.1,421.3,446.6,418.9,446.6,416.4z M451.4,416.4c0,1.8,0.3,3.5,1,5.1s1.6,3,2.8,4.2
			c1.2,1.2,2.6,2.2,4.1,2.9c1.6,0.7,3.3,1,5.1,1c1.8,0,3.5-0.3,5-1c1.6-0.7,2.9-1.6,4.1-2.9c1.2-1.2,2.1-2.6,2.7-4.2s1-3.3,1-5.2
			c0-1.8-0.3-3.5-1-5.2c-0.7-1.6-1.6-3-2.8-4.2c-1.2-1.2-2.6-2.2-4.1-2.9c-1.6-0.7-3.2-1-5-1c-1.8,0-3.5,0.4-5.1,1.1
			c-1.6,0.7-2.9,1.7-4.1,2.9c-1.2,1.2-2.1,2.6-2.7,4.2C451.8,412.9,451.4,414.6,451.4,416.4z"/>
		<path class="st0" d="M489.9,399h4.7v30.2h17.6v4.5h-22.3V399z"/>
		<path class="st0" d="M44.7,461.7c-1-0.5-2.2-1.1-3.7-1.6c-1.5-0.5-3-0.8-4.5-0.8c-1.5,0-2.7,0.2-3.7,0.6c-1,0.4-1.8,0.9-2.3,1.6
			c-0.6,0.6-1,1.3-1.2,2c-0.2,0.7-0.4,1.3-0.4,1.8c0,1.1,0.3,2.1,1,2.9c0.7,0.8,1.6,1.6,2.7,2.2c1.1,0.6,2.3,1.2,3.6,1.8
			c1.4,0.6,2.7,1.3,4,2.1c1.3,0.8,2.3,1.7,3.1,2.9c0.8,1.2,1.2,2.7,1.1,4.6c0,1.1-0.3,2.2-0.7,3.3c-0.4,1.2-1.1,2.2-2,3.2
			c-0.9,1-2,1.8-3.5,2.4c-1.4,0.6-3.1,0.9-5.1,0.9c-1.7,0-3.2-0.3-4.6-0.7c-1.4-0.4-2.6-0.9-3.6-1.6c-1.1-0.6-2-1.3-2.7-1.9l1.3-1.8
			c0.7,0.6,1.5,1.3,2.5,1.8c1,0.6,2.1,1.1,3.4,1.4c1.2,0.4,2.5,0.6,3.8,0.6c1.9,0,3.5-0.4,4.8-1.2c1.3-0.8,2.3-1.8,2.9-3
			c0.7-1.2,1-2.4,1.1-3.7c0-1.4-0.3-2.5-1-3.5c-0.7-0.9-1.6-1.8-2.7-2.4c-1.1-0.7-2.3-1.3-3.6-1.8c-1-0.4-2-0.9-3-1.5
			c-1-0.5-1.9-1.1-2.7-1.8c-0.8-0.7-1.4-1.4-1.9-2.3c-0.4-0.9-0.6-1.9-0.6-3.1c0.1-1.7,0.6-3.2,1.5-4.4c0.9-1.2,2.1-2.2,3.6-2.8
			c1.5-0.7,3.1-1,4.9-1c1.2,0,2.3,0.2,3.4,0.4c1.1,0.3,2.2,0.6,3.2,1c1,0.4,2,0.9,2.8,1.4L44.7,461.7z"/>
		<path class="st0" d="M55.2,457.2h2.4l-4.2,34.1H51L55.2,457.2z"/>
		<path class="st0" d="M66.6,491.3h-2.3l4.3-34.8h0l13.9,23.9l-1.1-0.1l19.8-23.7h0L97,491.3h-2.3l3.6-29.4l0,1.2l-16.7,20h-0.1
			l-11.9-20l0.5-1.1L66.6,491.3z"/>
		<path class="st0" d="M111.8,479.8c-0.3,2-0.1,3.7,0.6,5.1c0.6,1.4,1.6,2.6,2.9,3.3c1.3,0.8,2.9,1.2,4.7,1.2c2,0,3.7-0.4,5.2-1.2
			c1.5-0.8,2.7-1.9,3.6-3.3c0.9-1.4,1.5-3.2,1.7-5.1l2.7-22.6h2.4l-2.7,22.7c-0.3,2.5-1.1,4.6-2.2,6.3c-1.2,1.8-2.7,3.1-4.5,4
			c-1.9,0.9-4,1.4-6.5,1.4c-2.2,0-4.1-0.5-5.8-1.4c-1.6-0.9-2.9-2.3-3.7-4c-0.8-1.8-1.1-3.9-0.8-6.3l2.8-22.7h2.4L111.8,479.8z"/>
		<path class="st0" d="M146.6,457.2h2.3l-3.9,31.8h18.7l-0.3,2.3h-21L146.6,457.2z"/>
		<path class="st0" d="M169.5,491.3h-2.4l18.8-35.6h0.2l10,35.6h-2.6l-8.7-31.5l1.8-0.9L169.5,491.3z M175.8,477.8h15.1l0.4,2.2
			h-16.4L175.8,477.8z"/>
		<path class="st0" d="M202.9,457.2h22.3l-0.3,2.3h-10l-3.9,31.8h-2.4l3.9-31.8h-9.9L202.9,457.2z"/>
		<path class="st0" d="M233.3,457.2h2.4l-4.2,34.1h-2.4L233.3,457.2z"/>
		<path class="st0" d="M258.8,491.7c-2.2,0-4.3-0.4-6.3-1.1c-2-0.8-3.7-1.8-5.2-3.2c-1.5-1.4-2.7-3.1-3.6-5.1
			c-0.9-2-1.3-4.2-1.3-6.6c0-2.1,0.4-4.3,1.2-6.5c0.8-2.2,2-4.2,3.5-6c1.6-1.8,3.5-3.3,5.8-4.5c2.3-1.1,5-1.7,8-1.7
			c2.2,0,4.3,0.4,6.3,1.1c2,0.8,3.7,1.8,5.2,3.2c1.5,1.4,2.7,3.1,3.6,5.1c0.9,2,1.3,4.2,1.3,6.7c0,2.1-0.4,4.3-1.2,6.4
			c-0.8,2.2-2,4.2-3.5,6c-1.6,1.8-3.5,3.3-5.8,4.5C264.5,491.1,261.9,491.7,258.8,491.7z M258.9,489.4c2.6,0,4.9-0.5,6.9-1.5
			c2-1,3.7-2.3,5-3.9c1.4-1.6,2.4-3.4,3.1-5.3c0.7-1.9,1-3.8,1-5.6c0-1.9-0.4-3.7-1.1-5.4c-0.7-1.7-1.7-3.2-3-4.5
			c-1.3-1.3-2.8-2.3-4.5-3c-1.7-0.7-3.6-1.1-5.6-1.1c-2.6,0-4.9,0.5-6.9,1.5c-2,1-3.7,2.3-5,3.9c-1.4,1.6-2.4,3.4-3.1,5.3
			c-0.7,1.9-1,3.8-1,5.6c0,1.9,0.3,3.7,1,5.4c0.7,1.7,1.7,3.2,2.9,4.4c1.3,1.3,2.8,2.3,4.5,3C255,489,256.9,489.4,258.9,489.4z"/>
		<path class="st0" d="M312.5,492.1L312.5,492.1l-23.2-30.5l0.6-0.3l-3.6,30H284l4.3-34.8h0.1l23.1,30.7l-0.6,0l3.6-30h2.3
			L312.5,492.1z"/>
		<path class="st0" d="M348.6,474.1c-1.1-0.1-2.2,0.1-3.3,0.4c-1.1,0.4-2.2,0.9-3.1,1.6c-0.9,0.7-1.7,1.6-2.3,2.6
			c-0.6,1-0.9,2.2-0.9,3.5c0,1.4,0.3,2.7,1.1,3.8c0.8,1.1,1.8,2,3.1,2.6c1.3,0.6,2.7,1,4.3,1c1.3,0,2.5-0.2,3.6-0.6
			c1.1-0.4,2.1-0.9,3-1.6c0.9-0.7,1.5-1.4,2-2.2l1.3,1.6c-1,1.4-2.4,2.6-4.2,3.5c-1.9,0.9-3.9,1.3-6.2,1.3c-2.1,0-4-0.5-5.6-1.3
			c-1.6-0.9-2.9-2-3.7-3.5c-0.9-1.4-1.3-3-1.2-4.8c0.1-1.5,0.5-2.9,1.2-4.1s1.7-2.3,2.9-3.2c1.2-0.9,2.5-1.6,3.9-2.1
			c1.4-0.5,2.9-0.7,4.3-0.6L348.6,474.1z M361.7,491.3c-0.1,0-0.3,0-0.6,0s-0.6,0-0.9,0s-0.7,0-1.2,0l-14.6-23.5
			c-0.3-0.4-0.6-0.9-0.8-1.5c-0.2-0.5-0.4-1.1-0.6-1.7c-0.1-0.6-0.2-1.2-0.1-1.7c0-1.5,0.4-2.8,1.1-4c0.7-1.2,1.7-2.1,3-2.8
			c1.3-0.7,2.9-1,4.7-1c1.5,0,2.9,0.3,4.1,0.8c1.2,0.6,2.2,1.2,3,1.9l-1.3,1.6c-0.9-0.7-1.8-1.3-2.7-1.7c-0.9-0.4-1.9-0.6-2.9-0.6
			c-2.1,0-3.8,0.6-4.8,1.8c-1.1,1.2-1.6,2.6-1.7,4.2c0,0.4,0.1,0.8,0.2,1.2c0.1,0.4,0.3,0.9,0.5,1.3c0.2,0.4,0.4,0.7,0.5,1
			L361.7,491.3z M362.7,472.1h2.3l-7.2,14.4l-1.5-1.3L362.7,472.1z"/>
		<path class="st0" d="M385.6,491.3h-2.4l18.8-35.6h0.2l10,35.6h-2.6l-8.7-31.5l1.8-0.9L385.6,491.3z M391.8,477.8H407l0.4,2.2H391
			L391.8,477.8z"/>
		<path class="st0" d="M448.6,492.1L448.6,492.1l-23.2-30.5l0.6-0.3l-3.6,30h-2.3l4.3-34.8h0.1l23.1,30.7l-0.6,0l3.6-30h2.3
			L448.6,492.1z"/>
		<path class="st0" d="M459,491.3h-2.4l18.8-35.6h0.2l10,35.6H483l-8.7-31.5l1.8-0.9L459,491.3z M465.3,477.8h15.1l0.4,2.2h-16.4
			L465.3,477.8z"/>
		<path class="st0" d="M497.7,457.2h2.3l-3.9,31.8h18.7l-0.3,2.3h-21L497.7,457.2z"/>
		<path class="st0" d="M525.3,479.2l-10-21.9h2.8l9.1,20l-0.8,0l13.9-20h2.9l-15.5,21.9l-1.5,12.1h-2.4L525.3,479.2z"/>
		<path class="st0" d="M565.3,461.7c-1-0.5-2.2-1.1-3.7-1.6c-1.5-0.5-3-0.8-4.5-0.8c-1.5,0-2.7,0.2-3.7,0.6c-1,0.4-1.8,0.9-2.3,1.6
			c-0.6,0.6-1,1.3-1.2,2c-0.2,0.7-0.4,1.3-0.4,1.8c0,1.1,0.3,2.1,1,2.9c0.7,0.8,1.6,1.6,2.7,2.2c1.1,0.6,2.3,1.2,3.6,1.8
			c1.4,0.6,2.7,1.3,4,2.1s2.3,1.7,3.1,2.9c0.8,1.2,1.2,2.7,1.1,4.6c0,1.1-0.3,2.2-0.7,3.3c-0.4,1.2-1.1,2.2-2,3.2
			c-0.9,1-2,1.8-3.5,2.4c-1.4,0.6-3.1,0.9-5.1,0.9c-1.7,0-3.2-0.3-4.6-0.7c-1.4-0.4-2.6-0.9-3.6-1.6c-1.1-0.6-2-1.3-2.7-1.9l1.3-1.8
			c0.7,0.6,1.5,1.3,2.5,1.8c1,0.6,2.1,1.1,3.4,1.4c1.2,0.4,2.5,0.6,3.8,0.6c1.9,0,3.5-0.4,4.8-1.2c1.3-0.8,2.3-1.8,2.9-3
			s1-2.4,1.1-3.7c0-1.4-0.3-2.5-1-3.5c-0.7-0.9-1.6-1.8-2.7-2.4c-1.1-0.7-2.3-1.3-3.6-1.8c-1-0.4-2-0.9-3-1.5
			c-1-0.5-1.9-1.1-2.7-1.8s-1.4-1.4-1.9-2.3c-0.4-0.9-0.6-1.9-0.6-3.1c0.1-1.7,0.6-3.2,1.5-4.4c0.9-1.2,2.1-2.2,3.6-2.8
			c1.5-0.7,3.1-1,4.9-1c1.2,0,2.3,0.2,3.4,0.4c1.1,0.3,2.2,0.6,3.2,1c1,0.4,2,0.9,2.8,1.4L565.3,461.7z"/>
		<path class="st0" d="M575.7,457.2h2.4l-4.2,34.1h-2.4L575.7,457.2z"/>
		<path class="st0" d="M604.7,461.7c-1-0.5-2.2-1.1-3.7-1.6c-1.5-0.5-3-0.8-4.5-0.8c-1.5,0-2.7,0.2-3.7,0.6c-1,0.4-1.8,0.9-2.3,1.6
			c-0.6,0.6-1,1.3-1.2,2c-0.2,0.7-0.4,1.3-0.4,1.8c0,1.1,0.3,2.1,1,2.9s1.6,1.6,2.7,2.2s2.3,1.2,3.6,1.8c1.4,0.6,2.7,1.3,4,2.1
			c1.3,0.8,2.3,1.7,3.1,2.9c0.8,1.2,1.2,2.7,1.1,4.6c0,1.1-0.3,2.2-0.7,3.3s-1.1,2.2-2,3.2c-0.9,1-2,1.8-3.5,2.4s-3.1,0.9-5.1,0.9
			c-1.7,0-3.2-0.3-4.6-0.7c-1.4-0.4-2.6-0.9-3.6-1.6c-1.1-0.6-2-1.3-2.7-1.9l1.3-1.8c0.7,0.6,1.5,1.3,2.5,1.8c1,0.6,2.1,1.1,3.4,1.4
			c1.2,0.4,2.5,0.6,3.8,0.6c1.9,0,3.5-0.4,4.8-1.2c1.3-0.8,2.3-1.8,2.9-3c0.7-1.2,1-2.4,1.1-3.7c0-1.4-0.3-2.5-1-3.5
			c-0.7-0.9-1.6-1.8-2.7-2.4s-2.3-1.3-3.6-1.8c-1-0.4-2-0.9-3-1.5s-1.9-1.1-2.7-1.8c-0.8-0.7-1.4-1.4-1.9-2.3
			c-0.4-0.9-0.6-1.9-0.6-3.1c0.1-1.7,0.6-3.2,1.5-4.4c0.9-1.2,2.1-2.2,3.6-2.8c1.5-0.7,3.1-1,4.9-1c1.2,0,2.3,0.2,3.4,0.4
			c1.1,0.3,2.2,0.6,3.2,1c1,0.4,2,0.9,2.8,1.4L604.7,461.7z"/>
	</g>
</g>
</svg>
